<svg id="Layer_1" data-name="Layer 1" xmlns="http://www.w3.org/2000/svg" viewBox="0 0 1000 1000"><defs><style>.cls-1{fill:#ffd21f;}</style></defs><rect class="cls-1" x="11.01" y="11.14" width="977.72" height="977.72" rx="258.31"/><path d="M346.23,418.41h308c-2.18-2.73-3.66-4.69-5.25-6.55q-62-73-124-145.93c-7-8.3-8.24-16.44-3.61-24.08,6.57-10.85,21.37-12,30.27-1.78,19.6,22.57,38.85,45.45,58.22,68.22,30,35.24,59.86,70.57,90,105.63A15.67,15.67,0,0,0,710,418.68c12.32.57,24.68.13,37,.25,29.18.26,50.1,21.29,50.3,50.48,0,6.88.07,13.77,0,20.65-.26,21.9-12.48,39.4-33.06,46.72-4.16,1.48-5.82,3.48-6.55,7.85q-19.46,116.55-39.37,233c-5.18,30-29.79,50-60.31,50.06q-153.81.1-307.62,0c-31.06,0-55.69-19.94-61.79-50.56q-22.87-114.82-45.08-229.79c-1.16-6-3.34-9.17-9.44-11.33-18.7-6.61-30.89-24.42-31.33-44.26-.18-8.07-.15-16.14,0-24.21A48.89,48.89,0,0,1,250.62,419c12.8-.37,25.63-.26,38.45,0a13.37,13.37,0,0,0,11.6-5.19q71.26-84.24,142.79-168.24c1.69-2,3.38-4,5.17-5.88,7.48-7.92,18.32-8.86,26.17-2.31,8,6.7,8.93,18,1.82,26.71-6.74,8.29-13.78,16.32-20.7,24.46q-53,62.35-106,124.72C348.71,414.62,347.78,416.19,346.23,418.41ZM280.42,540.23c.31,2.58.42,4.66.82,6.68Q303,657.58,324.81,768.23c2.92,14.81,11.7,22.36,26.76,22.37q152.7.12,305.4,0c14.27,0,22.9-7.87,25.27-22q15.22-90.51,30.48-181c2.62-15.59,5.2-31.19,7.9-47.35ZM499.66,502.4v0q122.49,0,245,0c11.32,0,15.4-4.08,15.59-15.44.08-4.51,0-9,0-13.54,0-13.62-3.61-17.21-17.38-17.21h-480c-3.33,0-6.65-.07-10,0-7.85.26-12.43,4.39-12.95,12.21-.38,5.67-.16,11.39-.15,17.08,0,13.14,3.78,16.9,17,16.9Z"/><path d="M583.75,723.22c2.28-14.84,4.8-31.24,7.33-47.64,3.73-24.13,7.36-48.27,11.22-72.38,1.86-11.57,11.05-18.61,21.44-16.87,10.57,1.78,17.1,11.26,15.35,22.67q-9,58.71-18.12,117.37c-1.84,11.79-9.78,18.55-20.2,17.69C590.77,743.23,583.48,735,583.75,723.22Z"/><path d="M416.34,724.77c0,10.1-6.84,18-16.18,19.2-9.94,1.28-18.78-4.86-20.6-15.33-3.35-19.38-6.17-38.86-9.18-58.3-3.11-20.15-6.16-40.31-9.27-60.46-1.86-12,4.22-21.59,15-23.52,10.63-1.9,19.81,5.24,21.71,17.34Q407,662,415.89,720.37C416.14,722,416.23,723.67,416.34,724.77Z"/><path d="M518.64,665c0,19,0,37.93,0,56.89,0,13.63-7.16,22.18-18.43,22.29s-18.74-8.47-18.76-21.95q-.07-57.24,0-114.5c0-13,7.38-21.47,18.43-21.57,11.3-.1,18.74,8.52,18.77,22C518.67,627,518.64,646,518.64,665Z"/></svg>