<svg id="Layer_1" data-name="Layer 1" xmlns="http://www.w3.org/2000/svg" viewBox="0 0 1000 1000"><defs><style>.cls-1{fill:#2c2727;}.cls-2{fill:#fff;}</style></defs><rect class="cls-1" x="11.14" y="11.14" width="977.72" height="977.72" rx="258.31"/><path class="cls-2" d="M684.1,577.32Q660.45,606.89,629.89,623t-70,16.1a165.53,165.53,0,0,1-61.78-11.5,153.32,153.32,0,0,1-32.4-17.53L640.38,339.77A170.75,170.75,0,0,1,672.93,369l62.43-60.45q-33.51-37.46-76.55-57.17t-99.56-19.72q-52.59,0-97.59,19.06t-77.87,51.91q-32.87,32.87-51.91,77.87t-19.06,96.93q0,51.93,19.06,96.93a251.9,251.9,0,0,0,25.63,46.56L252.81,783l71.39,46.13,95.34-147.55a253.7,253.7,0,0,0,42.12,22.61q45,19.05,97.59,19.06,58.49,0,105.8-22t82.14-64.07ZM401.53,477.43q0-36.8,12.49-66.7t33.84-50.93a149.63,149.63,0,0,1,50.27-32.52,164.29,164.29,0,0,1,56.5-11.42L411.43,537.47Q401.54,510.18,401.53,477.43Z"/></svg>